<!DOCTYPE svg PUBLIC "-//W3C//DTD SVG 1.1//EN" "http://www.w3.org/Graphics/SVG/1.1/DTD/svg11.dtd">
<!-- Uploaded to: SVG Repo, www.svgrepo.com, Transformed by: SVG Repo Mixer Tools -->
<svg fill="#000000" width="64px" height="64px" viewBox="-1.5 -1.5 33.00 33.00" xmlns="http://www.w3.org/2000/svg" stroke="#000000" stroke-width="0.45" transform="rotate(0)matrix(1, 0, 0, 1, 0, 0)">
<g id="SVGRepo_bgCarrier" stroke-width="0"/>
<g id="SVGRepo_tracerCarrier" stroke-linecap="round" stroke-linejoin="round" stroke="#CCCCCC" stroke-width="0.3"/>
<g id="SVGRepo_iconCarrier">
<path d="M29.5 23h-17c-.68 0-.647 1 0 1h17c.645 0 .673-1 0-1zm0-6H.5c-.673 0-.654 1 0 1h29c.65 0 .67-1 0-1zm0-6h-17c-.65 0-.68 1 0 1h17c.655 0 .666-1 0-1zm0-6H.5c-.66 0-.66 1 0 1h29c.653 0 .665-1 0-1z"/>
</g>
</svg>