<svg width="129" height="26" viewBox="0 0 129 26" fill="none" xmlns="http://www.w3.org/2000/svg">
<path d="M11.7609 5.50441C11.8463 3.967 11.9316 2.48085 12.017 0.99469H0.666992V2.6175C0.737017 2.62551 0.806807 2.63352 0.876473 2.64153L1.1117 2.66861C1.55692 2.71991 2.00211 2.7712 2.47616 2.82249V17.7524C1.92999 17.8378 1.41797 17.9232 0.871806 18.0257V19.6656H12.273C12.2388 18.8798 12.209 18.1026 12.1791 17.3254C12.1492 16.5481 12.1194 15.7709 12.0852 14.9851C11.6913 14.9683 11.3096 14.9556 10.9303 14.943C10.5372 14.93 10.1465 14.917 9.74696 14.8996C9.71207 15.209 9.67718 15.5125 9.64271 15.8123C9.55916 16.5389 9.4781 17.2439 9.40561 17.9574H5.92381V10.9024H7.4087C7.52817 11.4149 7.66471 11.9273 7.80125 12.3885H9.32027V7.81051H7.76712C7.64764 8.32298 7.52817 8.80128 7.4087 9.27958H5.90675V2.63458H9.37147C9.39707 3.10434 9.42268 3.56557 9.44828 4.02679C9.47388 4.48801 9.49948 4.94923 9.52508 5.419C9.90168 5.43574 10.266 5.44839 10.628 5.46095C11.0043 5.47401 11.3782 5.487 11.7609 5.50441Z" fill="#A1A6BA"/>
<path fill-rule="evenodd" clip-rule="evenodd" d="M52.4207 25.3895V25.3898C52.4092 25.5812 52.3972 25.7784 52.3819 25.986H58.0313C58.0478 25.7714 58.0603 25.5647 58.0726 25.3603C58.0859 25.1417 58.099 24.9255 58.1166 24.7048C57.6387 24.6023 57.2291 24.5169 56.8195 24.4315V19.4264C56.9048 19.4435 56.956 19.4606 57.0072 19.4776C57.7923 19.8364 58.6116 19.9047 59.4649 19.8364C61.1205 19.6997 62.3152 18.8798 62.9809 17.3423C63.1857 16.8299 63.3393 16.3003 63.4417 15.7537C63.7318 14.2846 63.7148 12.7985 63.5953 11.3294C63.5441 10.6119 63.3905 9.87741 63.1857 9.19412C62.7078 7.65671 61.7691 6.58053 60.0623 6.40971C58.6969 6.27306 57.5022 6.64886 56.5805 7.70796C56.5718 7.7167 56.5631 7.72493 56.5543 7.73285C56.5505 7.7363 56.5467 7.7397 56.5429 7.74304L56.5371 7.74814C56.5259 7.75774 56.5148 7.767 56.5037 7.77626C56.4781 7.79762 56.4525 7.81899 56.4269 7.84461C56.3293 7.50251 56.2403 7.17788 56.1476 6.83948L56.1468 6.83638C56.1102 6.70266 56.0729 6.56677 56.0343 6.42679C54.7372 6.6147 53.4913 6.78552 52.2453 6.95635V8.28876C52.6672 8.36154 53.0766 8.42193 53.4736 8.48048C53.5424 8.49063 53.6109 8.50072 53.679 8.51083V24.4315C53.2694 24.534 52.8769 24.6194 52.4672 24.7048C52.4485 24.9296 52.4349 25.1544 52.4208 25.3876L52.4208 25.3886L52.4207 25.3895ZM59.7892 17.7694C58.7822 18.111 57.8094 18.094 56.8024 17.6669V9.82616C56.8024 9.14287 57.2291 8.6304 57.9118 8.49375C57.9801 8.49375 58.0313 8.47666 58.0825 8.45958C59.2089 8.27167 59.9428 8.69873 60.2842 9.77492C60.4378 10.2703 60.5402 10.7999 60.5743 11.3123C60.6767 12.8497 60.7109 14.3871 60.489 15.9074C60.4402 16.2612 60.348 16.615 60.2557 16.9688L60.2556 16.969L60.2337 17.053L60.2175 17.1156L60.2128 17.1338L60.2007 17.1808L60.192 17.2151C60.1768 17.2746 60.162 17.3341 60.1476 17.3936C60.0964 17.5815 59.994 17.7011 59.7892 17.7694Z" fill="#A1A6BA"/>
<path d="M94.6072 18.0427C95.0851 18.1452 95.5117 18.2306 95.9384 18.316C95.9299 18.5467 95.9171 18.7687 95.9043 18.9908C95.8915 19.2128 95.8787 19.4349 95.8702 19.6656H91.5179C91.5179 19.6143 91.5136 19.5673 91.5094 19.5203C91.5051 19.4734 91.5009 19.4264 91.5009 19.3751C91.5009 18.4128 91.5027 17.4506 91.5046 16.4883C91.5084 14.5636 91.5122 12.639 91.5009 10.7144C91.5009 10.3216 91.4155 9.92866 91.296 9.55285C91.1595 9.10872 90.784 8.85248 90.3232 8.74999C89.8794 8.64749 89.4357 8.68166 89.026 8.85248C88.6676 9.00623 88.3775 9.29662 88.3775 9.72367V17.9231C88.3775 17.9419 88.3826 17.9555 88.3901 17.9752C88.3962 17.9915 88.4039 18.0119 88.4116 18.0427C88.8042 18.1281 89.2138 18.2136 89.6917 18.299C89.6736 18.5341 89.6603 18.7692 89.6467 19.0094L89.6467 19.0102L89.6466 19.0114C89.6346 19.2243 89.6224 19.4411 89.6063 19.6656H84.0082V18.316C84.4349 18.2306 84.8274 18.1452 85.2541 18.0427V8.64749L85.1006 8.63046L85.0997 8.63036L85.0992 8.6303L85.0987 8.63024C84.6861 8.58455 84.26 8.53736 83.8204 8.47667V7.09301C85.0322 6.92219 86.244 6.75137 87.507 6.56347C87.5852 6.83172 87.6561 7.09998 87.7244 7.35866L87.725 7.36088L87.7259 7.36413C87.7615 7.4989 87.7964 7.63105 87.8313 7.75922C87.9199 7.6927 88.0103 7.62079 88.1031 7.54697L88.1033 7.54681C88.2964 7.39322 88.4998 7.23144 88.7188 7.09301C89.9306 6.32431 91.2448 6.18765 92.5932 6.66596C93.7196 7.07593 94.317 7.9642 94.5047 9.12579C94.5559 9.45036 94.573 9.77493 94.573 10.0995V17.5303C94.6072 17.7182 94.6072 17.8719 94.6072 18.0427Z" fill="#A1A6BA"/>
<path d="M18.6089 18.2136C18.3282 18.1566 18.0475 18.0997 17.7517 18.0427C17.7506 18.0332 17.7497 18.0237 17.7487 18.0143L17.7478 18.0054L17.7463 17.989L17.7454 17.9785C17.7428 17.9497 17.7406 17.9212 17.7384 17.8928C17.7308 17.7941 17.7233 17.6954 17.7005 17.5815V16.0441C17.7005 15.3501 17.7024 14.6579 17.7043 13.9664L17.7043 13.9626V13.9589C17.7081 12.5765 17.7119 11.1966 17.7005 9.8091C17.7005 9.55287 17.7858 9.36496 17.9394 9.15997C18.3491 8.66459 18.9123 8.6475 19.4585 8.69876C20.2265 8.76708 20.6703 9.2283 20.7897 9.97993C20.8409 10.3045 20.8751 10.629 20.8751 10.9536V19.6485H25.2444V18.9481C25.2444 18.726 25.2615 18.504 25.2785 18.2819C25.0481 18.2392 24.8305 18.1965 24.6128 18.1538C24.3952 18.1111 24.1776 18.0684 23.9472 18.0257V10.0482C23.9472 9.7066 23.9302 9.34788 23.8619 9.02331C23.6059 7.74215 22.872 6.85387 21.5748 6.54639C20.09 6.18767 18.7246 6.47807 17.5469 7.48591C17.4894 7.53525 17.4319 7.58856 17.3763 7.64009L17.376 7.64031C17.3162 7.69575 17.2586 7.74915 17.2055 7.79339C17.1839 7.71607 17.1628 7.63988 17.1421 7.56449C17.1189 7.48015 17.0962 7.39683 17.0736 7.31412L17.0734 7.31306C17.0048 7.0617 16.9377 6.81582 16.8642 6.56348C15.5841 6.75138 14.3723 6.9222 13.1605 7.09302V8.47668C13.6384 8.52794 14.1163 8.57918 14.5771 8.63042C14.6795 9.10873 14.6454 17.7353 14.5601 18.0427L14.5597 18.0428C14.1673 18.1282 13.7748 18.2136 13.3653 18.299C13.3564 18.5505 13.3427 18.7879 13.3292 19.021C13.3171 19.2312 13.3052 19.4379 13.2971 19.6485H18.9464C18.9635 19.4178 18.9763 19.1957 18.9891 18.9736L18.9891 18.9734L18.9893 18.9708C19.002 18.7497 19.0148 18.5286 19.0318 18.299C18.8899 18.2706 18.75 18.2422 18.61 18.2138L18.6089 18.2136Z" fill="#A1A6BA"/>
<path d="M114.593 8.30583C114.342 8.2789 114.096 8.25668 113.847 8.23422L113.846 8.23416C113.621 8.21391 113.394 8.19345 113.16 8.16917V6.95633C113.787 6.88738 114.415 6.815 115.046 6.74225L115.047 6.7421L115.05 6.74179L115.053 6.74138L115.062 6.74032C115.833 6.65152 116.607 6.56219 117.392 6.47802C117.416 6.55177 117.44 6.62452 117.464 6.6966C117.612 7.14212 117.751 7.562 117.751 8.0325C117.739 10.1492 117.743 12.2659 117.747 14.3776V14.3858C117.749 15.4411 117.751 16.4952 117.751 17.5473V18.0598C118.212 18.1452 118.621 18.2306 119.065 18.3331C119.039 18.5637 119.018 18.7858 118.997 19.0079C118.975 19.2299 118.954 19.452 118.928 19.6826H115.293C115.242 19.5205 115.186 19.3541 115.129 19.1813L115.129 19.1807C115.071 19.0078 115.011 18.8285 114.952 18.6406C114.832 18.726 114.747 18.7943 114.662 18.8627C113.177 20.2122 111.18 20.0755 109.917 19.4605C108.927 18.9822 108.398 18.1623 108.227 17.1032C108.159 16.7615 108.142 16.4028 108.142 16.0441V8.33999C107.812 8.30585 107.497 8.27171 107.183 8.23758C107.025 8.22047 106.868 8.20336 106.708 8.18625V6.97341C107.724 6.86042 108.74 6.73821 109.776 6.61354C110.15 6.56859 110.527 6.5233 110.907 6.47802C110.943 6.62507 110.988 6.7672 111.033 6.90801L111.033 6.90842L111.034 6.91104C111.133 7.22728 111.231 7.53674 111.231 7.87877V15.395C111.231 15.7366 111.248 16.0782 111.299 16.4199C111.419 17.3423 112.016 17.889 112.938 17.906C113.262 17.906 113.586 17.8548 113.911 17.7694C114.252 17.684 114.696 17.0861 114.696 16.7444V8.45956C114.644 8.40832 114.627 8.37415 114.593 8.30583Z" fill="#A1A6BA"/>
<path fill-rule="evenodd" clip-rule="evenodd" d="M46.0839 16.7957C45.5206 15.9587 45.35 15.0192 45.35 13.9601C47.5176 13.9259 49.6169 13.9088 51.7674 13.8917C51.7994 13.7903 51.8397 13.6889 51.8801 13.5875C51.9688 13.3644 52.0575 13.1412 52.0575 12.9181C52.0575 11.9444 51.9551 10.9707 51.682 10.0141C51.409 9.07456 51.0164 8.22045 50.3166 7.53716C49.1219 6.39264 47.6882 6.20473 46.1521 6.5293C44.5307 6.87094 43.4725 7.8788 42.7898 9.34787C42.3631 10.2532 42.1583 11.1928 42.073 12.1835C41.9364 13.7893 42.0901 15.3608 42.7898 16.847C43.4213 18.1965 44.3771 19.2043 45.8449 19.6314C47.6029 20.1438 49.2585 19.8535 50.8287 18.9993C50.9929 18.9227 51.136 18.8179 51.2806 18.712C51.3614 18.6528 51.4427 18.5933 51.5284 18.5381C51.3407 18.1111 51.17 17.7182 50.9993 17.3253L50.9989 17.3254L50.9974 17.3259C50.8449 17.3768 50.7429 17.4109 50.6409 17.4619C49.8558 17.7865 49.0536 17.9573 48.2003 17.9402C47.2957 17.9231 46.5959 17.5303 46.0839 16.7957ZM49.2055 11.8129C49.2161 11.9565 49.2273 12.1069 49.2414 12.2689C47.9101 12.3373 46.63 12.3885 45.35 12.4398C45.3467 12.4198 45.3427 12.4012 45.3385 12.3835C45.3358 12.3725 45.3331 12.3618 45.3303 12.3514C45.3283 12.3437 45.3263 12.3362 45.3243 12.3288C45.3109 12.2792 45.2988 12.2344 45.2988 12.1835C45.35 11.0561 45.5548 9.96283 45.9815 8.90374C46.118 8.59625 46.3228 8.40835 46.6471 8.30586C47.4664 8.04962 48.0978 8.27169 48.5245 9.0233C48.9171 9.70659 49.0707 10.4582 49.156 11.2269C49.1761 11.4176 49.1903 11.6082 49.2055 11.8127V11.8129Z" fill="#A1A6BA"/>
<path fill-rule="evenodd" clip-rule="evenodd" d="M102.963 13.9166L102.96 13.9167C101.875 13.9297 100.797 13.9427 99.7103 13.9601C99.6591 14.4213 99.7274 14.8484 99.8127 15.2754C99.9322 15.9245 100.171 16.5224 100.615 17.0349C101.11 17.6157 101.724 17.9061 102.475 17.9231C103.295 17.9573 104.08 17.8036 104.848 17.4961C105.001 17.4278 105.155 17.3765 105.36 17.3082L105.361 17.3103L105.361 17.3112C105.531 17.7031 105.702 18.0951 105.889 18.5381C105.876 18.5479 105.863 18.557 105.85 18.5657C105.839 18.5732 105.828 18.5803 105.817 18.5873C105.807 18.5938 105.796 18.6001 105.786 18.6065C105.768 18.6177 105.75 18.6289 105.733 18.6408C105.716 18.6515 105.7 18.6626 105.684 18.6748C104.319 19.6314 102.782 20.0072 101.161 19.8193C99.1471 19.5972 97.7987 18.4185 97.0648 16.5737C96.1261 14.1992 96.1603 11.7906 97.1331 9.4162C97.7646 7.89588 98.8569 6.85387 100.512 6.49513C101.81 6.22182 103.056 6.30723 104.182 7.07593C104.984 7.62257 105.479 8.42543 105.821 9.3137C106.264 10.4582 106.435 11.654 106.401 12.8668C106.389 13.1107 106.307 13.3458 106.224 13.5847L106.224 13.5856C106.21 13.6255 106.196 13.6655 106.182 13.7057C106.174 13.7284 106.167 13.7512 106.159 13.774C106.154 13.7901 106.149 13.8062 106.144 13.8224C106.138 13.8398 106.133 13.8572 106.128 13.8747C105.057 13.8914 104.007 13.9041 102.963 13.9166ZM103.568 12.2689C103.533 11.3807 103.431 10.5436 103.175 9.74076C103.038 9.33079 102.851 8.97206 102.578 8.63041C102.066 7.98129 100.512 8.10087 100.274 9.00623C100.218 9.21755 100.157 9.42888 100.096 9.64109C99.9483 10.1493 99.7996 10.6625 99.7274 11.1928C99.7188 11.2619 99.7092 11.3305 99.6996 11.399C99.6523 11.7371 99.6052 12.0734 99.6762 12.4568C100.36 12.4208 101.034 12.3896 101.713 12.3581C102.323 12.3298 102.938 12.3013 103.568 12.2689Z" fill="#A1A6BA"/>
<path fill-rule="evenodd" clip-rule="evenodd" d="M80.1091 13.917C81.1628 13.9043 82.2208 13.8916 83.2913 13.8747C83.3223 13.7764 83.3611 13.6766 83.4002 13.5761C83.4902 13.3448 83.5814 13.1102 83.5814 12.884C83.5814 11.5857 83.4107 10.3216 82.8987 9.12588C82.5061 8.20343 81.9429 7.41765 81.0383 6.92226C79.6729 6.17065 78.2393 6.23897 76.8397 6.78561C75.645 7.26391 74.8599 8.18635 74.3308 9.33087C73.8699 10.3046 73.6651 11.3466 73.5969 12.4227C73.4774 14.0114 73.6822 15.5659 74.4161 17.0179C75.1329 18.4357 76.2423 19.4265 77.8296 19.7339C79.5193 20.0756 81.1407 19.751 82.6086 18.8286C82.6853 18.7774 82.7579 18.7219 82.8304 18.6663L82.8306 18.6662C82.9031 18.6107 82.9756 18.5552 83.0523 18.504C82.9398 18.2481 82.8335 18.0045 82.7295 17.7658C82.66 17.6062 82.5916 17.4487 82.5232 17.2912C82.4204 17.338 82.3278 17.3745 82.2398 17.4092L82.2395 17.4093C82.167 17.438 82.0976 17.4653 82.0283 17.4962C81.2431 17.8207 80.441 17.9574 79.6047 17.9232C78.8708 17.9062 78.2563 17.5987 77.7955 17.035C77.0616 16.1638 76.8909 15.1217 76.8738 13.9601C77.9537 13.9429 79.0291 13.9299 80.1091 13.917ZM80.7222 11.9185C80.7303 12.032 80.7386 12.1485 80.7482 12.269C80.0471 12.305 79.3602 12.3362 78.6675 12.3677L78.6639 12.3679C78.0425 12.3962 77.4165 12.4246 76.7714 12.4569C76.7851 12.2992 76.7961 12.1553 76.8065 12.0185L76.8066 12.0173C76.8221 11.8137 76.8364 11.6259 76.8568 11.432C76.9762 10.5266 77.164 9.63834 77.5395 8.80131C77.6419 8.57924 77.7955 8.44259 78.0174 8.35718C78.8878 8.01553 79.5876 8.2376 80.0484 9.05754C80.4068 9.68959 80.5604 10.39 80.6458 11.0903C80.6825 11.3601 80.7017 11.6298 80.7222 11.9185Z" fill="#A1A6BA"/>
<path d="M36.9016 6.56357C36.9528 6.76009 36.9997 6.95234 37.0467 7.14459C37.0936 7.33669 37.1405 7.52879 37.1917 7.72516C37.2685 7.68246 37.3453 7.63548 37.4221 7.58851L37.4223 7.58838C37.4991 7.54145 37.5758 7.49451 37.6525 7.45185C38.5571 6.9223 39.53 6.68315 40.5711 6.56357C41.0661 6.51233 41.4245 6.66607 41.7146 7.09313C41.6227 7.96062 41.5207 8.84833 41.4163 9.75627L41.4162 9.75771C41.3849 10.0293 41.3535 10.3027 41.3221 10.5779C40.9646 10.5609 40.6199 10.5481 40.2753 10.5353L40.2696 10.5351H40.2689C39.9245 10.5223 39.58 10.5095 39.2228 10.4925C39.1374 9.86044 39.0691 9.24549 39.0009 8.63053C38.4889 8.66468 38.0622 8.81843 37.6696 9.09174V18.0599C37.9653 18.131 38.2529 18.1938 38.555 18.2598C38.6887 18.289 38.8253 18.3189 38.9667 18.3503C38.9584 18.5667 38.9461 18.7749 38.9336 18.9848C38.9205 19.206 38.9072 19.4291 38.8985 19.6657H33.3174V18.3674C33.7099 18.2649 34.1025 18.1624 34.478 18.077V8.66468C34.3296 8.64819 34.1848 8.6317 34.0413 8.6152C33.9619 8.60607 33.8828 8.59695 33.8038 8.58782C33.644 8.56936 33.4841 8.55089 33.3211 8.53244L33.1296 8.51095V7.12728C34.1 6.96543 35.0809 6.82487 36.0893 6.68039L36.104 6.67829C36.3678 6.64048 36.6336 6.60239 36.9016 6.56357Z" fill="#A1A6BA"/>
<path d="M119.901 18.3502C119.867 18.7773 119.85 19.2044 119.833 19.6656C121.728 19.6656 123.571 19.6656 125.482 19.6143C125.499 19.3921 125.512 19.1742 125.525 18.9562C125.538 18.7386 125.551 18.5209 125.568 18.299C125.396 18.2609 125.23 18.2227 125.067 18.1855C124.792 18.1226 124.528 18.0622 124.271 18.0086V8.97209C124.697 8.81835 125.124 8.66461 125.585 8.51087C125.616 8.76398 125.646 9.00772 125.674 9.24642L125.675 9.24819C125.723 9.65324 125.77 10.0438 125.824 10.4412C126.174 10.4582 126.519 10.4711 126.865 10.4839C127.21 10.4967 127.556 10.5095 127.906 10.5266C127.941 10.2165 127.977 9.90874 128.012 9.60356C128.112 8.73185 128.21 7.8813 128.299 7.05888C127.991 6.59765 127.599 6.44392 127.104 6.54641C126.936 6.581 126.768 6.6113 126.601 6.64145L126.601 6.64155C126.19 6.71558 125.785 6.78872 125.397 6.92222C125.022 7.04743 124.662 7.22573 124.307 7.40153L124.306 7.40178C124.128 7.48973 123.952 7.57705 123.776 7.65676C123.734 7.49698 123.692 7.3248 123.648 7.14428C123.602 6.95807 123.555 6.76298 123.503 6.56349C122.24 6.7514 120.994 6.92222 119.696 7.09304V8.4767C120.114 8.53434 120.495 8.57983 120.86 8.62341C120.928 8.63149 120.995 8.63951 121.062 8.64752V18.0598C120.923 18.0946 120.79 18.1274 120.66 18.1595C120.405 18.2222 120.161 18.2825 119.901 18.3502Z" fill="#A1A6BA"/>
<path d="M69.6803 8.84711L69.6784 8.8478C69.5001 8.91361 69.3283 8.97701 69.1593 9.04041V18.0598C69.3797 18.1107 69.5959 18.1574 69.812 18.2041L69.8209 18.206C70.037 18.2526 70.2532 18.2993 70.4735 18.3502C70.4647 18.4654 70.4558 18.5794 70.447 18.6928C70.4357 18.8378 70.4244 18.9819 70.4131 19.1263C70.3991 19.3047 70.3851 19.4837 70.3711 19.6656H64.79V18.3673L65.9677 18.0598V8.64752C65.8331 8.63255 65.6999 8.61758 65.5674 8.60262C65.473 8.59196 65.379 8.58131 65.285 8.57065L65.2706 8.56903C65.0493 8.54395 64.8278 8.51886 64.6023 8.49378V7.11012C65.8482 6.9393 67.0771 6.76848 68.3913 6.58057C68.4425 6.76841 68.4979 6.95626 68.5534 7.14411C68.6089 7.33207 68.6644 7.52004 68.7156 7.708C68.8669 7.6323 69.0126 7.55382 69.1572 7.47591L69.1575 7.47579C69.3718 7.36038 69.5838 7.24625 69.8079 7.14429C70.4906 6.81972 71.2416 6.70014 71.9926 6.58057C72.4875 6.51224 72.8801 6.63182 73.2044 7.09303C73.1648 7.46086 73.1233 7.83431 73.0813 8.21338L73.0804 8.22063L73.0803 8.22142C72.9957 8.98411 72.9085 9.76959 72.8289 10.5778C72.485 10.5694 72.1452 10.5569 71.8035 10.5443C71.4499 10.5313 71.0941 10.5182 70.7296 10.5095C70.6742 10.0773 70.626 9.67393 70.5757 9.25265C70.5485 9.02451 70.5206 8.79104 70.4906 8.54502C70.2005 8.65517 69.9338 8.75355 69.6803 8.84711Z" fill="#A1A6BA"/>
<path d="M29.7502 6.73426V4.08651C29.311 4.10696 28.8901 4.1274 28.4693 4.14785C28.1869 4.16157 27.9046 4.17529 27.6167 4.189C27.4764 4.68073 27.3301 5.17246 27.1849 5.66074C27.0829 6.0036 26.9814 6.34477 26.8828 6.68301C26.6077 6.69922 26.344 6.71157 26.0846 6.72373C25.7969 6.73722 25.5145 6.75046 25.2273 6.76842C25.2182 7.07751 25.2043 7.36725 25.1907 7.65051C25.1787 7.89951 25.167 8.1435 25.159 8.39124C25.3812 8.4283 25.5938 8.46216 25.8037 8.49558C26.0775 8.53917 26.3467 8.58204 26.6268 8.63038C26.6439 8.78413 26.661 8.93787 26.661 9.09161V16.7786C26.661 17.0349 26.661 17.2911 26.6951 17.5473C26.8316 18.7772 27.6338 19.5972 28.8456 19.8022C29.6478 19.9388 30.4329 19.8876 31.218 19.7338C31.5764 19.6655 31.9349 19.5972 32.2762 19.3751C32.2479 19.1299 32.2249 18.8847 32.2013 18.6338C32.1821 18.4302 32.1626 18.2228 32.1397 18.0085C31.9764 18.0085 31.8191 18.0105 31.6657 18.0125C31.3702 18.0162 31.0893 18.0198 30.8084 18.0085C30.2793 17.9915 29.9038 17.6498 29.8355 17.1203C29.8185 16.9494 29.8185 16.7786 29.8185 16.6078C29.8014 14.0625 29.8014 11.5173 29.8014 8.97203C29.8014 8.86589 29.8148 8.7732 29.8298 8.67008L29.8355 8.63038C30.2125 8.58437 30.5796 8.54331 30.9502 8.50188C31.2674 8.4664 31.5871 8.43064 31.9178 8.39124C31.9306 8.25434 31.9434 8.11851 31.9563 7.98268C31.9946 7.57615 32.033 7.1696 32.0714 6.73426H29.7502Z" fill="#A1A6BA"/>
</svg>
