<svg width="103" height="19" viewBox="0 0 103 19" fill="none" xmlns="http://www.w3.org/2000/svg">
<path d="M15.2897 6.97353V18.6438H19.7568V0.99469H13.5759L9.97983 10.7391L6.35562 0.99469H0.174805V18.6438H4.61375V6.97353L8.99651 18.6438H10.9631L15.2897 6.97353Z" fill="#A1A6BA"/>
<path fill-rule="evenodd" clip-rule="evenodd" d="M28.5785 17.3791V18.6726H32.596V10.6817C32.596 6.71495 29.7865 5.56517 26.7804 5.56517C24.87 5.56517 22.7067 6.14006 21.1053 7.54854L22.5662 10.3655C23.5776 9.47441 24.8138 8.98577 26.0499 8.98577C27.6513 8.98577 28.5785 9.73312 28.5785 10.8542V12.1189C27.8199 11.1703 26.359 10.6242 24.7014 10.6242C22.791 10.6242 20.4029 11.659 20.4029 14.7634C20.4029 17.6091 22.791 18.9601 24.7014 18.9601C26.3028 18.9601 27.7918 18.3277 28.5785 17.3791ZM28.5785 14.2172V15.367C28.1851 15.9706 27.2299 16.2869 26.359 16.2869C25.3195 16.2869 24.3643 15.8269 24.3643 14.8209C24.3643 13.8148 25.3195 13.3262 26.359 13.3262C27.2299 13.3262 28.157 13.6136 28.5785 14.2172Z" fill="#A1A6BA"/>
<path d="M32.8488 16.9766L34.5064 14.0734C35.4335 14.907 37.4282 15.7981 38.8891 15.7981C40.0691 15.7981 40.5748 15.4532 40.5748 14.907C40.5748 14.3442 39.6562 14.1894 38.4731 13.99C36.3327 13.6293 33.3264 13.1226 33.3264 9.79048C33.3264 7.54842 35.2368 5.5938 38.6644 5.5938C40.7996 5.5938 42.5414 6.28368 43.89 7.28973L42.3729 10.1642C41.6143 9.41681 40.2096 8.75569 38.6925 8.75569C37.7654 8.75569 37.1473 9.12937 37.1473 9.61802C37.1473 10.0992 37.9932 10.2449 39.107 10.4368C41.2537 10.8065 44.3957 11.3477 44.3957 14.792C44.3957 17.2353 42.3167 18.96 38.7487 18.96C36.473 18.96 34.1692 18.1839 32.8488 16.9766Z" fill="#A1A6BA"/>
<path d="M53.358 11.199V18.6438H57.3193V9.56053C57.3193 7.20348 56.0269 5.56506 53.1894 5.56506C51.0823 5.56506 49.6214 6.54237 48.8628 7.43345V0.99469H44.8734V18.6151H48.8628V10.3654C49.3404 9.79048 50.1271 9.12937 51.2789 9.12937C52.5432 9.12937 53.358 9.64676 53.358 11.199Z" fill="#A1A6BA"/>
<path fill-rule="evenodd" clip-rule="evenodd" d="M66.0567 17.3791C65.27 18.3277 63.781 18.9601 62.1796 18.9601C60.2692 18.9601 57.8811 17.6091 57.8811 14.7634C57.8811 11.659 60.2692 10.6242 62.1796 10.6242C63.8372 10.6242 65.2981 11.1703 66.0567 12.1189V10.8542C66.0567 9.73312 65.1295 8.98577 63.5281 8.98577C62.292 8.98577 61.0558 9.47441 60.0444 10.3655L58.5835 7.54854C60.1849 6.14006 62.3482 5.56517 64.2586 5.56517C67.2647 5.56517 70.0742 6.71495 70.0742 10.6817V18.6726H66.0567V17.3791ZM66.0567 15.367V14.2172C65.6352 13.6136 64.7081 13.3262 63.8372 13.3262C62.7977 13.3262 61.8425 13.8148 61.8425 14.8209C61.8425 15.8269 62.7977 16.2869 63.8372 16.2869C64.7362 16.2869 65.6633 15.9706 66.0567 15.367Z" fill="#A1A6BA"/>
<path fill-rule="evenodd" clip-rule="evenodd" d="M71.4228 0.99469V18.6438H75.4122V17.1778C76.4517 18.4138 77.716 18.9887 79.1207 18.9887C82.2111 18.9887 84.6273 16.6029 84.6273 12.2625C84.6273 8.06582 82.2392 5.56506 79.1207 5.56506C77.7441 5.56506 76.3955 6.1112 75.4122 7.37596V0.99469H71.4228ZM80.5255 12.2625C80.5255 14.1884 79.3455 15.3669 77.7722 15.3669C76.9293 15.3669 75.8898 14.907 75.3841 14.2171V10.3366C75.8898 9.64676 76.9293 9.15812 77.7722 9.15812C79.3455 9.15812 80.5255 10.3654 80.5255 12.2625Z" fill="#A1A6BA"/>
<path d="M89.1505 0.99469H85.161V18.6438H89.1505V0.99469Z" fill="#A1A6BA"/>
<path fill-rule="evenodd" clip-rule="evenodd" d="M96.3427 5.53626C92.4376 5.53626 89.7124 8.52569 89.7124 12.2337C89.7124 16.4017 92.6623 18.9599 96.5394 18.9599C98.4498 18.9599 100.529 18.4138 101.765 17.264L100.023 14.5908C99.2927 15.2806 97.8317 15.6831 96.9608 15.6831C95.1628 15.6831 94.1233 14.7345 93.8423 13.5847H102.72V12.6649C102.72 8.32447 100.051 5.53626 96.3427 5.53626ZM93.7861 10.7965C93.9266 9.87666 94.6009 8.81313 96.3427 8.81313C98.1689 8.81313 98.8151 9.90542 98.9274 10.7965H93.7861Z" fill="#A1A6BA"/>
</svg>
