<svg width="32" height="32" xmlns="http://www.w3.org/2000/svg">
 <g>
  <title>Layer 1</title>
  <g id="svg_1">
   <path id="svg_2" d="m11.50007,17.99999c-0.13,0.004 -0.253,0.058 -0.344,0.15l-9.516,9.502c-0.896,0.893 -0.776,2.134 -0.105,2.81c0.67,0.674 1.913,0.795 2.81,-0.103l9.49,-9.49c0.492,-0.472 -0.25,-1.182 -0.706,-0.708l-9.49,9.49c-0.58,0.58 -1.07,0.43 -1.396,0.104c-0.326,-0.328 -0.47,-0.826 0.102,-1.397l9.517,-9.503c0.326,-0.318 0.084,-0.857 -0.363,-0.857l0.001,0.002zm8.45,-14.93c-1.604,0.213 -3.146,0.91 -4.39,2.063c-0.49,0.453 0.21,1.17 0.68,0.734c2.18,-2.02 5.392,-2.445 8.022,-1.06c0.58,0.332 1.053,-0.603 0.465,-0.885c-1.5,-0.79 -3.17,-1.064 -4.776,-0.852l-0.001,0zm1.05,-2.07c-5.517,0 -10,4.483 -10,10s4.483,10 10,10s10,-4.483 10,-10s-4.483,-10 -10,-10zm0,1c4.976,0 9,4.024 9,9s-4.024,9 -9,9s-9,-4.024 -9,-9s4.024,-9 9,-9z"/>
  </g>
 </g>

</svg>