<?xml version="1.0" encoding="utf-8"?>
<!-- Generator: Adobe Illustrator 26.4.1, SVG Export Plug-In . SVG Version: 6.00 Build 0)  -->
<svg version="1.1" id="Слой_1" xmlns="http://www.w3.org/2000/svg" xmlns:xlink="http://www.w3.org/1999/xlink" x="0px" y="0px"
	 viewBox="0 0 66 66" enable-background="new 0 0 66 66" xml:space="preserve">
<g>
	<defs>
		<rect id="SVGID_1_" x="18" y="18" width="30" height="30"/>
	</defs>
	<clipPath id="SVGID_00000094580677659989728470000010406518683482822567_">
		<use xlink:href="#SVGID_1_"  overflow="visible"/>
	</clipPath>
	<g clip-path="url(#SVGID_00000094580677659989728470000010406518683482822567_)">
		
			<linearGradient id="SVGID_00000025416584943244925970000004040099035010352022_" gradientUnits="userSpaceOnUse" x1="33" y1="49.3564" x2="33" y2="20.6068" gradientTransform="matrix(1 0 0 -1 0 68)">
			<stop  offset="0" style="stop-color:#FFE38D"/>
			<stop  offset="1" style="stop-color:#FFCD38"/>
		</linearGradient>
		<path fill="url(#SVGID_00000025416584943244925970000004040099035010352022_)" d="M47.9,29.5c-0.2-0.6-0.7-1-1.4-1.1l-8.7-0.8
			l-3.4-8c-0.3-0.6-0.8-1-1.5-1c-0.6,0-1.2,0.4-1.5,1l-3.4,8l-8.7,0.8c-0.6,0.1-1.2,0.5-1.4,1.1c-0.2,0.6,0,1.3,0.5,1.7l6.5,5.7
			l-1.9,8.5c-0.1,0.6,0.1,1.3,0.6,1.6c0.3,0.2,0.6,0.3,0.9,0.3c0.3,0,0.6-0.1,0.8-0.2l7.5-4.5l7.5,4.5c0.5,0.3,1.2,0.3,1.8-0.1
			c0.5-0.4,0.8-1,0.6-1.6l-1.9-8.5l6.5-5.7C47.9,30.8,48.1,30.1,47.9,29.5z"/>
	</g>
</g>
</svg>
