<svg width="355" height="389" viewBox="0 0 355 389" fill="none" xmlns="http://www.w3.org/2000/svg">
<path fill-rule="evenodd" clip-rule="evenodd" d="M122.675 338.349C223.011 338.349 304.349 257.011 304.349 156.675C304.349 56.3385 223.011 -25 122.675 -25C22.3385 -25 -59 56.3385 -59 156.675C-59 257.011 22.3385 338.349 122.675 338.349ZM122.675 388.349C250.625 388.349 354.349 284.625 354.349 156.675C354.349 28.7243 250.625 -75 122.675 -75C-5.27573 -75 -109 28.7243 -109 156.675C-109 284.625 -5.27573 388.349 122.675 388.349Z" fill="#244D4D"/>
<path fill-rule="evenodd" clip-rule="evenodd" d="M108.885 259.77C170.125 259.77 219.77 210.125 219.77 148.885C219.77 87.6449 170.125 38 108.885 38C47.6449 38 -2 87.6449 -2 148.885C-2 210.125 47.6449 259.77 108.885 259.77ZM108.885 309.77C197.739 309.77 269.77 237.739 269.77 148.885C269.77 60.0307 197.739 -12 108.885 -12C20.0307 -12 -52 60.0307 -52 148.885C-52 237.739 20.0307 309.77 108.885 309.77Z" fill="#244D4D"/>
</svg>
