<svg width="145" height="20" viewBox="0 0 145 20" fill="none" xmlns="http://www.w3.org/2000/svg">
<path d="M145 9.99998C145 15.5228 140.523 20 135 20C133.967 20 132.97 19.8433 132.033 19.5525C132.444 18.8843 133.044 17.8104 133.264 16.9464L133.889 14.5678C134.21 15.1933 135.165 15.7201 136.177 15.7201C139.19 15.7201 141.363 12.9464 141.363 9.49784C141.363 6.1892 138.663 3.72008 135.198 3.72008C130.877 3.72008 128.589 6.6172 128.589 9.76945C128.589 11.2427 129.371 13.0617 130.622 13.646C130.811 13.7365 130.918 13.6954 130.959 13.5143C130.973 13.4563 131.011 13.305 131.055 13.1255C131.118 12.8718 131.196 12.5616 131.239 12.3785C131.264 12.2797 131.256 12.1892 131.173 12.0905C130.762 11.5884 130.432 10.6666 130.432 9.81062C130.432 7.60483 132.103 5.47318 134.951 5.47318C137.412 5.47318 139.132 7.14394 139.132 9.53901C139.132 12.2386 137.766 14.1151 135.988 14.1151C135.009 14.1151 134.268 13.3003 134.507 12.3044C134.609 11.8796 134.744 11.4433 134.875 11.0189C135.113 10.2511 135.338 9.52235 135.338 8.9711C135.338 8.20567 134.926 7.5637 134.07 7.5637C133.066 7.5637 132.26 8.60075 132.26 9.9917C132.26 10.8723 132.556 11.4732 132.556 11.4732C132.556 11.4732 131.568 15.6625 131.387 16.4443C131.19 17.3077 131.264 18.5244 131.354 19.3145C127.634 17.8574 125 14.2363 125 9.99998C125 4.47714 129.477 0 135 0C140.523 0 145 4.47714 145 9.99998Z" fill="white"/>
<path fill-rule="evenodd" clip-rule="evenodd" d="M100 20H95.5796V12.969C95.5796 11.129 94.8886 9.8725 93.3677 9.8725C92.205 9.8725 91.5582 10.7205 91.2573 11.5375C91.1441 11.8305 91.1618 12.239 91.1618 12.6475V20H86.7827C86.7827 20 86.8391 7.5455 86.7827 6.4135H91.1618V8.54601C91.4209 7.61351 92.82 6.283 95.0527 6.283C97.8232 6.283 100 8.237 100 12.4455V20ZM82.3545 4.714H82.3259C80.915 4.714 80 3.67549 80 2.35899C80 1.01699 80.9418 0 82.3814 0C83.8196 0 84.7041 1.0145 84.7318 2.355C84.7318 3.6715 83.8195 4.714 82.3545 4.714ZM80.5045 6.4135H84.4027V20H80.5045V6.4135Z" fill="white"/>
<path d="M55 3.77672C54.2477 4.07961 53.452 4.28092 52.6375 4.37445C53.4959 3.90435 54.1376 3.15994 54.4412 2.28229C53.6376 2.72216 52.7585 3.03196 51.8418 3.19829C51.2797 2.64388 50.5498 2.2584 49.7471 2.09199C48.9443 1.92557 48.106 1.98592 47.3409 2.26517C46.5758 2.54443 45.9195 3.02968 45.4572 3.65783C44.9949 4.28598 44.7481 5.02797 44.7488 5.78734C44.7456 6.07711 44.7775 6.3663 44.8438 6.64955C43.2127 6.57574 41.6168 6.185 40.1604 5.50288C38.7041 4.82076 37.4201 3.86261 36.3925 2.69109C35.8648 3.52361 35.7013 4.51059 35.9353 5.4506C36.1693 6.3906 36.7831 7.21275 37.6515 7.74923C37.0027 7.73305 36.3677 7.57318 35.7999 7.28308V7.32432C35.801 8.19826 36.1282 9.04519 36.7265 9.72254C37.3249 10.3999 38.1577 10.8663 39.085 11.0432C38.7342 11.1286 38.3727 11.1705 38.0099 11.1679C37.7494 11.1721 37.4892 11.1504 37.2338 11.1032C37.4988 11.8543 38.0095 12.5111 38.6956 12.9832C39.3818 13.4554 40.2096 13.7196 41.0651 13.7395C39.6138 14.7871 37.8239 15.3554 35.9814 15.3537C35.6534 15.3557 35.3256 15.3383 35 15.3016C36.8748 16.4167 39.0595 17.0066 41.2899 16.9999C48.8348 16.9999 52.96 11.2312 52.96 6.23082C52.96 6.06344 52.9537 5.90205 52.9449 5.74161C53.7537 5.2074 54.4501 4.54155 55 3.77672Z" fill="white"/>
<path fill-rule="evenodd" clip-rule="evenodd" d="M10 7.69231H6.66667V4.61538C6.66667 3.76615 7.264 3.84615 8 3.84615H9.33333V0H6.66667C5.6058 0 4.58838 0.486263 3.83824 1.35181C3.08809 2.21737 2.66667 3.39131 2.66667 4.61538V7.69231H0V11.5385H2.66667V20H6.66667V11.5385H8.66667L10 7.69231Z" fill="white"/>
</svg>
