<svg width="121" height="21" viewBox="0 0 121 21" fill="none" xmlns="http://www.w3.org/2000/svg">
<path fill-rule="evenodd" clip-rule="evenodd" d="M14.6481 5.37681V1.54245L14.5796 1.47398H0.538554V1.61093C1.01801 1.6794 2.25088 2.63798 2.25088 4.14434V17.5646C2.25088 20.098 0.949513 20.3719 0.401568 20.6457C0.264582 20.6457 0.264582 20.7827 0.401568 20.7827H7.45636C7.52486 20.7827 7.52486 20.6457 7.45636 20.6457C6.29198 20.0295 5.33308 19.6872 5.33308 17.4961V11.1283H10.1961C11.3605 11.1283 12.5933 12.4293 13.0728 13.4563H13.2098V7.36245H13.0728C12.8673 8.52645 11.429 9.69045 10.1961 9.69045H5.40157V2.98034H10.9495C12.5933 2.98034 14.1002 4.28128 14.5112 5.44528C14.5112 5.51375 14.6481 5.51375 14.6481 5.37681ZM50.0591 18.3177L46.155 11.6076C46.7029 11.4707 47.3194 11.1968 48.0043 10.8545C51.429 8.80033 50.8125 4.48669 49.0317 3.04881C47.7303 2.02175 46.9769 1.54245 44.4427 1.47398H34.8536V1.54245C36.292 2.02175 36.8399 2.63798 36.9084 4.07587V17.5646C36.9084 20.098 35.744 20.0295 34.9221 20.6457V20.8512H41.7714V20.7142C40.3331 20.0295 39.9221 19.6187 39.9221 17.5646V11.95H43.1413L47.8673 20.8512H52.5249V20.5088C51.7029 20.3719 51.2235 20.2349 50.0591 18.3177ZM43.2783 10.5121H39.8536V2.8434H43.6892C48.0728 2.8434 48.4838 10.5121 43.2783 10.5121ZM99.3742 1.61093C100.744 2.29563 101.223 2.70645 101.223 4.76057V14.6888L90.6071 1.47398H86.2235V1.61093C87.5934 2.29563 88.0728 2.70645 88.0728 4.76057H88.0043V16.7429C88.0043 19.2763 87.0454 20.0295 86.2235 20.6457V20.8512H91.7029V20.7142C90.2646 20.0295 89.6481 19.4133 89.6481 17.2222V5.65069L101.977 20.8512H102.799V4.76057C102.799 2.22716 103.826 2.22716 104.648 1.6794V1.47398H99.5112V1.61093H99.3742ZM80.0591 1.61093C81.429 2.29563 81.9084 2.70645 81.9084 4.76057V15.5789C81.9084 17.633 80.607 19.5502 77.3194 19.5502C73.6892 19.5502 72.3879 17.2222 72.3879 15.5105V4.76057C72.3879 2.22716 73.3468 2.22716 74.1687 1.6794V1.47398H67.3879V1.61093C68.7577 2.29563 69.2372 2.70645 69.2372 4.76057V14.9627C69.2372 17.0168 70.3331 20.9881 77.3194 20.9881C82.4564 20.9881 83.7577 17.5646 83.7577 14.8942L83.6892 4.6921C83.6892 2.15869 84.7166 2.15869 85.5386 1.61093V1.47398H80.1276V1.61093H80.0591ZM120.539 15.9897C119.854 18.1808 117.662 19.4133 114.511 19.4133C110.95 19.4133 110.402 18.3177 110.265 17.4961V11.2653H114.648C117.182 11.2653 117.456 12.2923 118.073 13.114H118.21V8.04716H118.073C117.388 9.3481 116.771 9.82739 114.922 9.89586H110.333V2.77492H115.47C116.84 2.77492 119.237 4.21281 119.511 5.44528H119.58V1.47398H105.265V1.61093C106.566 2.22716 107.045 2.63798 107.114 4.07587V17.9754C107.045 19.4817 106.566 20.0295 105.265 20.6457V20.8512H119.785L120.676 15.9897H120.539ZM65.6071 1.47398H53.2783C52.8673 1.40551 52.4564 1.33704 52.3879 1.06316L51.4975 5.78763L51.566 5.8561C53.1413 3.25422 53.5523 2.77492 57.8673 2.77492V17.4276C57.8673 19.961 56.566 20.0295 55.8125 20.7142V20.8512H63.1413V20.7142C62.3194 20.098 61.0865 20.0295 61.0865 17.4276V2.77492C65.4016 2.77492 65.744 3.25422 67.4564 5.8561V5.78763L66.4975 1.13163C66.3605 1.33704 66.018 1.40551 65.6071 1.47398ZM25.0591 0.99469C19.2372 0.99469 14.5796 5.44528 14.5796 10.9914C14.5796 16.5375 19.2372 20.9881 25.0591 20.9881C30.881 20.9881 35.5386 16.5375 35.5386 10.9914C35.607 5.44528 30.881 0.99469 25.0591 0.99469ZM25.0591 19.7556C21.292 19.7556 18.2098 15.7843 18.2098 10.9914C18.2098 6.19845 21.292 2.3641 25.0591 2.3641C28.8947 2.3641 31.9084 6.26692 31.9084 10.9914C31.9084 15.7843 28.8947 19.7556 25.0591 19.7556Z" fill="#A1A6BA"/>
</svg>
