<svg width="117" height="26" viewBox="0 0 117 26" fill="none" xmlns="http://www.w3.org/2000/svg">
<path d="M0 0.994812H11.8517V12.8835H0V0.994812Z" fill="#A1A6BA"/>
<path d="M13.0618 0.994812H24.9136V12.8835H13.0618V0.994812Z" fill="#A1A6BA"/>
<path d="M110.609 5.07911C109.378 4.7435 107.968 4.80779 106.872 5.52183C106.175 5.97884 105.662 6.69999 105.434 7.48543C105.246 8.10589 105.254 8.74706 105.262 9.38732L105.264 9.52197L105.265 9.62698C105.266 9.82767 105.266 10.028 105.256 10.2274C104.658 10.2274 104.068 10.2202 103.477 10.2345C103.481 10.6943 103.48 11.1509 103.478 11.6064V11.6139C103.478 11.8422 103.477 12.0701 103.477 12.2981C103.594 12.2995 103.711 12.3 103.827 12.3002C103.967 12.3004 104.106 12.2999 104.245 12.2994L104.483 12.2987L104.661 12.2986L104.785 12.2989C104.945 12.2996 105.104 12.3013 105.263 12.3052C105.259 14.2281 105.26 16.1541 105.262 18.0812L105.263 19.0541C105.263 19.6939 105.263 20.3338 105.263 20.9736H107.826V12.2981H111.577C111.577 12.9121 111.576 13.5262 111.576 14.1402C111.574 15.3684 111.572 16.5965 111.577 17.8247C111.591 18.6887 111.734 19.6026 112.303 20.281C112.794 20.8807 113.57 21.1521 114.325 21.2092C115.115 21.2663 115.934 21.1735 116.667 20.8522V18.7458C116.104 19.1242 115.328 19.2741 114.716 18.9314C114.346 18.7244 114.211 18.296 114.161 17.9032C114.109 17.4653 114.114 17.0211 114.118 16.5768C114.119 16.4918 114.12 16.4068 114.121 16.3218C114.121 16.2704 114.121 16.2191 114.121 16.1677C114.121 16.0821 114.12 15.9965 114.118 15.9111C114.118 15.5112 114.119 15.1114 114.12 14.7115L114.121 14.1412C114.121 13.9415 114.122 13.7418 114.122 13.5421L114.121 13.2141L114.121 12.8574C114.12 12.6757 114.119 12.494 114.118 12.3123C114.424 12.3149 114.729 12.3128 115.033 12.3108C115.579 12.3072 116.123 12.3036 116.667 12.3266V10.2416C116.438 10.2435 116.209 10.2439 115.979 10.2437L115.583 10.243H115.583C115.1 10.2418 114.616 10.2406 114.133 10.2488C114.125 9.63249 114.126 9.01859 114.127 8.40566C114.128 7.94621 114.129 7.48731 114.126 7.02842C113.877 7.10456 113.627 7.18196 113.377 7.25957C112.784 7.4438 112.188 7.6288 111.591 7.79963C111.578 8.30832 111.579 8.817 111.579 9.32568L111.579 9.69699C111.579 9.8785 111.579 10.0601 111.577 10.2416H107.826C107.83 10.1217 107.831 10.0016 107.831 9.88129C107.83 9.77404 107.829 9.66673 107.827 9.55941C107.822 9.14208 107.816 8.72488 107.876 8.31368C107.954 7.81386 108.239 7.30692 108.73 7.11412C109.342 6.85709 110.033 7.02842 110.616 7.28551C110.611 6.74957 110.613 6.21362 110.612 5.67768C110.612 5.47818 110.611 5.27861 110.609 5.07911Z" fill="#A1A6BA"/>
<path d="M51.9982 5.67175C52.5178 5.59316 53.073 5.77167 53.4147 6.17869C53.8133 6.6214 53.8916 7.32826 53.5927 7.84956C53.2652 8.43502 52.5249 8.7064 51.8843 8.5636C51.2223 8.4422 50.6671 7.82097 50.6956 7.12834C50.6742 6.40719 51.2864 5.75738 51.9982 5.67175Z" fill="#A1A6BA"/>
<path d="M36.082 5.99307H32.352C32.352 10.9913 32.352 15.9896 32.3592 20.9806H34.8007V14.2687C34.8033 13.6819 34.8021 13.0942 34.8009 12.5063C34.7989 11.4772 34.7968 10.4474 34.8149 9.42044C34.8321 9.44917 34.8493 9.47901 34.8664 9.50956C34.892 9.55502 34.9175 9.60195 34.9431 9.64895C35.3864 10.7533 35.8291 11.8583 36.2719 12.9636L36.2781 12.9793C37.3477 15.649 38.4179 18.3202 39.4987 20.9878C39.7804 20.9813 40.0606 20.9823 40.34 20.9831C40.6749 20.9841 41.0086 20.9852 41.3423 20.9735C42.1486 18.9065 42.9656 16.8438 43.7827 14.7807L43.7939 14.7526C44.4662 13.0549 45.1387 11.3569 45.8054 9.65606L45.8262 9.61478C45.837 9.59379 45.8479 9.57322 45.8589 9.55286C45.8847 9.50537 45.9114 9.45935 45.9406 9.41326C45.9477 9.58466 45.9549 9.74887 45.9549 9.91308C45.9513 11.7589 45.9513 13.6047 45.9513 15.4496C45.9513 17.2944 45.9513 19.1384 45.9477 20.9806C46.5905 20.9913 47.2333 20.99 47.8761 20.9887H47.8872C48.102 20.9882 48.3168 20.9878 48.5316 20.9878V5.99307C48.1897 5.99307 47.8478 5.99188 47.5059 5.9907C46.6519 5.98777 45.798 5.98491 44.9441 6.00018C44.0319 8.26801 43.1117 10.5305 42.1917 12.7926L41.3062 14.9705C41.0213 15.6718 40.7366 16.3732 40.4525 17.0749C40.2707 16.638 40.0989 16.1986 39.9268 15.7582C39.8091 15.4572 39.6912 15.1557 39.5699 14.8542L37.8244 10.4197C37.243 8.94474 36.6616 7.46981 36.082 5.99307Z" fill="#A1A6BA"/>
<path d="M59.0523 10.2273C60.2909 9.87027 61.6219 9.88457 62.8605 10.2416C63.1168 10.313 63.3588 10.413 63.5937 10.5486C63.5855 11.0182 63.5867 11.4877 63.5879 11.956C63.5887 12.3066 63.5896 12.6564 63.5866 13.0049C62.7609 12.3694 61.7145 11.9696 60.661 12.1052C59.8282 12.1838 59.0309 12.6122 58.5327 13.2905C57.892 14.126 57.7425 15.2398 57.8564 16.2681C57.9419 17.0677 58.2693 17.8747 58.8886 18.403C59.5363 18.9814 60.4403 19.1813 61.2874 19.117C62.1202 19.0171 62.9103 18.6672 63.5866 18.1674C63.5908 18.6328 63.59 19.0957 63.5901 19.5591C63.5903 19.8705 63.5908 20.1822 63.5937 20.4951C62.5473 21.1235 61.2874 21.2806 60.0915 21.2234C58.8672 21.1592 57.6429 20.6951 56.7531 19.824C55.7851 18.8885 55.2654 17.5605 55.2014 16.2252C55.1373 14.84 55.422 13.3905 56.2121 12.2338C56.8741 11.2555 57.9134 10.5558 59.0523 10.2273Z" fill="#A1A6BA"/>
<path d="M90.5928 10.4415C89.4753 10.0131 88.2296 9.86316 87.048 10.0703C86.0443 10.2488 85.062 10.77 84.4997 11.6411C84.0014 12.3837 83.9374 13.3476 84.1438 14.2045C84.2862 14.7829 84.6349 15.2969 85.1047 15.6611C85.6259 16.0603 86.231 16.3222 86.833 16.5828C86.9138 16.6178 86.9945 16.6528 87.0751 16.6881C87.1565 16.7238 87.2378 16.7597 87.3185 16.7964L87.3882 16.8301C87.7663 17.0122 88.1612 17.2024 88.436 17.5319C88.7492 17.9889 88.6496 18.7386 88.13 18.9957C87.5819 19.2598 86.9412 19.2527 86.3575 19.1599C85.5105 19.0171 84.7204 18.6529 84.0299 18.1531C84.0258 18.3905 84.0241 18.628 84.0235 18.8654C84.0233 18.9544 84.0233 19.0434 84.0233 19.1325C84.0234 19.2793 84.0237 19.4262 84.0241 19.573C84.025 19.928 84.0258 20.283 84.0228 20.638C84.8414 21.0021 85.7383 21.1806 86.628 21.2377C87.8808 21.2877 89.2475 21.0378 90.1942 20.1524C91.1908 19.2741 91.4257 17.7104 90.8633 16.5323C90.5644 15.9039 89.9878 15.4683 89.397 15.1327C89.0533 14.9311 88.6859 14.7783 88.3191 14.6258L88.3181 14.6254C87.8801 14.4433 87.443 14.2616 87.048 13.9975C86.6209 13.7261 86.507 13.1334 86.6778 12.6836C86.8985 12.2266 87.4253 12.0267 87.9022 12.0053C88.8489 11.9767 89.8098 12.2623 90.5928 12.805V10.4415Z" fill="#A1A6BA"/>
<path d="M69.3167 10.4058C70.0213 9.97738 70.9254 9.94167 71.6941 10.2059C71.6894 10.7771 71.6909 11.3483 71.6925 11.9196C71.6933 12.2052 71.6941 12.4908 71.6941 12.7764C71.1887 12.4479 70.5552 12.3051 69.9644 12.3694C69.2384 12.4551 68.6618 13.012 68.3628 13.6547C68.0354 14.333 67.9784 15.1041 67.9998 15.8468V20.9878H65.4728V10.2487C66.3116 10.2344 67.1575 10.2416 67.9964 10.2487H67.9998C67.995 10.6581 67.9966 11.0675 67.9982 11.4769C67.999 11.6816 67.9998 11.8862 67.9998 12.0909C68.2703 11.4197 68.676 10.7699 69.3167 10.4058Z" fill="#A1A6BA"/>
<path d="M51.6577 10.2392H51.6569C51.4947 10.24 51.3327 10.2407 51.1708 10.2412L50.9305 10.2416V20.9878H53.4716C53.4752 19.1991 53.4752 17.4087 53.4752 15.6183C53.4752 13.8278 53.4752 12.0374 53.4788 10.2487C52.8736 10.2334 52.2649 10.2363 51.6577 10.2392Z" fill="#A1A6BA"/>
<path fill-rule="evenodd" clip-rule="evenodd" d="M80.0793 10.4843C78.9404 9.96308 77.6449 9.89168 76.4135 10.0488C75.1251 10.2059 73.8652 10.8199 73.0466 11.8625C72.2992 12.7835 71.9361 13.9689 71.865 15.147C71.7653 16.5322 71.9931 18.0032 72.8046 19.1599C73.495 20.1595 74.5841 20.845 75.7657 21.0949C76.7551 21.302 77.7873 21.302 78.7696 21.0949C79.9156 20.8593 80.9976 20.2167 81.7094 19.2741C82.4069 18.3887 82.7558 17.2677 82.834 16.1467C82.9123 14.997 82.7984 13.8118 82.3215 12.755C81.8731 11.7625 81.0687 10.9342 80.0793 10.4843ZM79.3248 12.8121C78.7696 12.2552 77.951 12.0339 77.1822 12.0838C76.5701 12.1195 75.9508 12.3266 75.481 12.755C74.8546 13.3262 74.5698 14.1688 74.4916 14.9971C74.4061 15.9039 74.4702 16.8607 74.8831 17.689C75.2034 18.3316 75.7942 18.8314 76.4917 19.0171C77.1751 19.1956 77.9225 19.1813 78.5845 18.9243C79.154 18.7029 79.6024 18.2317 79.8444 17.6819C80.2146 16.8607 80.2502 15.9396 80.2074 15.0542C80.1434 14.2474 79.9156 13.3976 79.3248 12.8121Z" fill="#A1A6BA"/>
<path fill-rule="evenodd" clip-rule="evenodd" d="M96.8497 10.0416C98.131 9.88457 99.4834 9.97019 100.651 10.5629C101.669 11.0698 102.459 11.9981 102.85 13.062C103.156 13.876 103.263 14.7614 103.249 15.6254C103.249 16.9249 102.9 18.253 102.089 19.2884C101.327 20.288 100.167 20.9307 98.9354 21.1378C97.7324 21.3306 96.4654 21.2806 95.3264 20.8307C94.1733 20.3737 93.2123 19.4455 92.7212 18.2959C92.2158 17.1249 92.1589 15.8111 92.3155 14.5615C92.4792 13.3119 93.0486 12.0909 94.0096 11.2626C94.7997 10.57 95.8176 10.1773 96.8497 10.0416ZM97.5402 12.091C98.2662 12.041 99.035 12.2052 99.5902 12.6979C100.103 13.1263 100.387 13.7618 100.516 14.4116C100.665 15.1684 100.658 15.9468 100.537 16.7108C100.437 17.2748 100.245 17.839 99.8749 18.2888C99.5048 18.7386 98.9496 19.01 98.3801 19.0956C97.768 19.1885 97.1202 19.1456 96.5437 18.8957C95.9244 18.6315 95.4474 18.096 95.1912 17.4748C94.8851 16.7393 94.8282 15.9182 94.8851 15.1327C94.9421 14.3688 95.1556 13.5833 95.661 12.9906C96.1237 12.4337 96.8284 12.1267 97.5402 12.091Z" fill="#A1A6BA"/>
<path d="M0 14.0974H11.8517V25.9861H0V14.0974Z" fill="#A1A6BA"/>
<path d="M24.9136 14.0974H13.0618V25.9861H24.9136V14.0974Z" fill="#A1A6BA"/>
</svg>
