<svg width="42" height="42" viewBox="0 0 42 42" fill="none" xmlns="http://www.w3.org/2000/svg">
<path d="M34.9118 41.9115C37.1404 39.6829 38.9083 37.0371 40.1144 34.1253C41.3205 31.2135 41.9413 28.0926 41.9413 24.9409C41.9413 21.7892 41.3205 18.6683 40.1144 15.7565C38.9083 12.8447 37.1404 10.199 34.9118 7.97035C32.6832 5.74175 30.0375 3.97392 27.1257 2.76781C24.2139 1.5617 21.093 0.940918 17.9413 0.940918C14.7895 0.940918 11.6687 1.5617 8.75686 2.76781C5.84505 3.97392 3.19931 5.74175 0.970703 7.97036L8.93652 15.9362C10.119 14.7537 11.5229 13.8156 13.0679 13.1757C14.613 12.5357 16.2689 12.2063 17.9413 12.2063C19.6136 12.2063 21.2696 12.5357 22.8146 13.1757C24.3596 13.8156 25.7635 14.7537 26.946 15.9362C28.1285 17.1187 29.0666 18.5225 29.7065 20.0676C30.3465 21.6126 30.6759 23.2686 30.6759 24.9409C30.6759 26.6133 30.3465 28.2692 29.7065 29.8143C29.0666 31.3593 28.1285 32.7631 26.946 33.9457L34.9118 41.9115Z" fill="#FF7E7E"/>
</svg>
